<?xml version="1.0" encoding="UTF-8" standalone="no"?>
<!-- Created with Inkscape (http://www.inkscape.org/) -->

<svg
   version="1.1"
   id="svg1"
   width="2880"
   height="1280"
   viewBox="0 0 2880 1280"
   xmlns="http://www.w3.org/2000/svg"
   xmlns:svg="http://www.w3.org/2000/svg">
  <defs
     id="defs1">
    <clipPath
       clipPathUnits="userSpaceOnUse"
       id="clipPath2">
      <rect
         style="opacity:1;fill:#767676;fill-opacity:1;stroke:#da614c;stroke-width:9.00063;paint-order:markers stroke fill"
         id="rect3"
         width="2886.9763"
         height="1277.2617"
         x="-1.588479"
         y="1.5590302" />
    </clipPath>
    <clipPath
       clipPathUnits="userSpaceOnUse"
       id="clipPath3">
      <rect
         style="opacity:1;fill:#767676;fill-opacity:1;stroke:#da614c;stroke-width:9.00063;paint-order:markers stroke fill"
         id="rect4"
         width="2886.9763"
         height="1277.2617"
         x="-1.588479"
         y="1.5590302" />
    </clipPath>
    <clipPath
       clipPathUnits="userSpaceOnUse"
       id="clipPath4">
      <rect
         style="opacity:1;fill:#767676;fill-opacity:1;stroke:#da614c;stroke-width:9.00063;paint-order:markers stroke fill"
         id="rect5"
         width="2886.9763"
         height="1277.2617"
         x="-1.588479"
         y="1.5590302" />
    </clipPath>
    <clipPath
       clipPathUnits="userSpaceOnUse"
       id="clipPath5">
      <rect
         style="opacity:1;fill:#767676;fill-opacity:1;stroke:#da614c;stroke-width:9.00063;paint-order:markers stroke fill"
         id="rect6"
         width="2886.9763"
         height="1277.2617"
         x="-1.588479"
         y="1.5590302" />
    </clipPath>
    <clipPath
       clipPathUnits="userSpaceOnUse"
       id="clipPath6">
      <rect
         style="opacity:1;fill:#767676;fill-opacity:1;stroke:#da614c;stroke-width:9.00063;paint-order:markers stroke fill"
         id="rect7"
         width="2886.9763"
         height="1277.2617"
         x="-1.588479"
         y="1.5590302" />
    </clipPath>
    <clipPath
       clipPathUnits="userSpaceOnUse"
       id="clipPath7">
      <rect
         style="opacity:1;fill:#767676;fill-opacity:1;stroke:#da614c;stroke-width:9.00063;paint-order:markers stroke fill"
         id="rect8"
         width="2886.9763"
         height="1277.2617"
         x="-1.588479"
         y="1.5590302" />
    </clipPath>
  </defs>
  <g
     id="g8">
    <path
       id="path2-9"
       d="M 2372.2741,2480.7399 5328.9132,1116.4507 3302.2586,-295.11162 345.61953,1069.1776 Z"
       style="fill:#858585;fill-opacity:1;fill-rule:evenodd;stroke:none;stroke-width:0.0689846"
       clip-path="url(#clipPath7)" />
    <path
       id="path11-1"
       d="M 2175.0233,2394.1796 1955.1296,2235.533 c 30.3644,-75.7954 25.0669,-155.6742 -15.6812,-221.2773 -231.3303,-372.4147 -340.8045,-520.5811 -109.8018,-630.9948 58.0388,-27.7412 137.5475,-53.0928 242.0487,-79.0302 88.3166,-21.9227 163.8955,-48.9888 228.2024,-79.726 358.493,-171.351 367.0459,-456.95639 283.7878,-603.77861 -90.4474,-159.47635 -296.6976,-401.26375 -107.2541,-491.81318 92.8498,-44.379937 280.7383,-52.434113 623.9197,3.34128 324.3119,52.70745 550.4266,29.49588 692.9245,-38.606091 49.295,-23.561826 88.5602,-52.474874 118.4563,-85.4981572 l 83.734,60.4115552 c -27.9277,34.443373 -66.1232,64.128223 -115.4182,87.690043 -142.5055,68.09646 -377.5558,84.86129 -723.7551,16.3628 -366.3452,-72.48744 -562.849,-70.64892 -655.6987,-26.26898 -189.4436,90.54943 52.6722,358.21274 164.4792,533.09949 102.9276,161.01311 124.0429,468.02315 -234.4503,639.37425 -64.3068,30.7371 -140.8485,57.1085 -231.3046,77.4877 -107.0259,24.1159 -187.8681,48.5054 -245.907,76.2466 -231.002,110.4133 -100.3971,273.8258 181.8256,682.9577 49.7126,72.0707 63.6966,158.2166 39.7865,238.6685"
       style="fill:#505050;fill-opacity:1;fill-rule:nonzero;stroke:none;stroke-width:0.072045"
       clip-path="url(#clipPath6)" />
    <path
       id="path12-2"
       d="m 1959.0895,2236.2065 -297.1591,-214.3913 c 39.0935,-69.4976 45.5279,-140.9121 16.8967,-197.7733 -162.5445,-322.7877 -243.4678,-450.3585 -12.4674,-560.7711 58.0386,-27.7411 135.743,-54.3945 236.8209,-82.8018 85.4283,-24.0066 159.7235,-51.9988 224.0302,-82.7359 358.4932,-171.35104 407.1337,-428.03445 350.4414,-555.69025 -61.5709,-138.64283 -219.3538,-345.46241 -29.9102,-436.01184 92.8498,-44.37999 269.0993,-60.831266 580.9723,-27.644041 294.7364,31.369731 508.763,-0.563232 651.2607,-68.6652889 49.2949,-23.5617801 90.0008,-51.4354771 122.5714,-82.5292171 l 113.1455,81.6309772 c -29.8962,33.0233288 -69.1614,61.9363768 -118.4564,85.4981558 -142.5031,68.098234 -368.6126,91.313594 -692.9246,38.606094 -343.1814,-55.775349 -531.0698,-47.721219 -623.9197,-3.34124 -189.4435,90.54943 16.8068,332.33679 107.2541,491.81314 83.2581,146.82222 74.7053,432.42761 -283.7879,603.77871 -64.3067,30.7371 -139.8855,57.8032 -228.2023,79.7259 -104.5012,25.9374 -184.0099,51.2891 -242.0485,79.0302 -231.0028,110.4137 -121.5287,258.5801 109.8017,630.9948 40.7483,65.6032 46.0456,145.4819 15.6812,221.2773"
       style="fill:#3a3a3a;fill-opacity:1;fill-rule:nonzero;stroke:none;stroke-width:0.072045"
       clip-path="url(#clipPath5)" />
    <path
       id="path13-7"
       d="m 1666.2095,2024.9024 -184.242,-132.925 c 44.5137,-65.5871 58.2225,-131.7534 37.101,-183.1964 -119.9037,-292.0238 -183.127,-406.8233 47.8744,-517.2363 58.0387,-27.7411 134.6233,-55.2024 233.5831,-85.1379 83.6383,-25.298 157.1276,-53.8716 221.4344,-84.6088 358.493,-171.35098 431.9948,-410.09779 391.7841,-525.86263 -43.6845,-125.7383 -171.4141,-310.87538 18.0295,-401.424811 92.8498,-44.379984 261.882,-66.038328 554.3565,-46.846464 276.3865,18.130698 482.9306,-19.207754 625.4286,-87.309723 49.2888,-23.558887 90.8932,-50.78429 125.1113,-80.689482 l 70.1551,50.614771 c -32.5707,31.093741 -73.2764,58.967527 -122.5714,82.529307 -142.503,68.098233 -356.5243,100.034932 -651.2608,68.6652 -311.8729,-33.187225 -488.1224,-16.735949 -580.9723,27.644032 -189.4435,90.54943 -31.6607,297.36902 29.9102,436.01184 56.6923,127.65581 8.0518,384.33923 -350.4413,555.69026 -64.3068,30.737 -138.602,58.7293 -224.0303,82.7359 -101.0778,28.4073 -178.7822,55.0607 -236.8209,82.8018 -231.0003,110.4126 -150.077,237.9833 12.4674,560.7711 28.6313,56.8611 22.1971,128.2758 -16.8966,197.7733"
       style="fill:#242424;fill-opacity:1;fill-rule:nonzero;stroke:none;stroke-width:0.072045"
       clip-path="url(#clipPath4)" />
    <path
       id="path14-0"
       d="m 1485.0172,1893.086 -171.0196,-123.3855 c 49.5274,-61.9699 69.9899,-123.2636 55.8432,-169.6745 -80.3225,-263.4672 -127.1112,-366.4132 103.8871,-476.8248 58.0449,-27.744 133.5965,-55.9432 230.5881,-87.2988 81.9692,-26.5021 154.7228,-55.61376 219.0297,-86.35088 358.487,-171.3481 455.06,-393.44965 430.1468,-498.17776 -27.0674,-113.74962 -126.9045,-278.76323 62.539,-369.312652 92.8498,-44.379938 255.1854,-70.869813 529.6378,-64.680239 259.3702,5.85388 458.9536,-36.50647 601.4515,-104.608439 49.2889,-23.55894 91.7277,-50.18223 127.4791,-78.98121 l 65.1201,46.98225 c -34.218,29.905183 -75.8223,57.13054 -125.1113,80.689473 -142.503,68.098235 -349.042,105.440375 -625.4285,87.309723 -292.4745,-19.19191 -461.5068,2.466481 -554.3564,46.84642 -189.4436,90.549424 -59.7342,276.023324 -16.0496,401.761574 40.2105,115.7649 -35.2711,354.17493 -393.7641,525.52594 -64.3069,30.7371 -137.7961,59.3108 -221.4343,84.6088 -98.96,29.9355 -175.5444,57.3967 -233.5832,85.1379 -231.0015,110.413 -167.7781,225.2124 -47.8744,517.2362 21.1214,51.443 7.4129,117.6095 -37.101,183.1965"
       style="fill:#202020;fill-opacity:1;fill-rule:nonzero;stroke:none;stroke-width:0;stroke-dasharray:none"
       clip-path="url(#clipPath3)" />
    <path
       id="path15-9"
       d="M 1318.1171,1771.5808 -16.791129,1283.2245 -306.93603,21.254661 3264.6991,-463.03142 3678.7193,-164.3284 c -35.7513,28.79892 -78.1902,55.42227 -127.4792,78.981202 -142.5029,68.098188 -342.0812,110.462319 -601.4513,104.608393 -274.4525,-6.189529 -436.788,20.3003 -529.6378,64.680284 -189.4435,90.549431 -89.6063,255.563121 -62.5389,369.312601 24.9131,104.72816 -71.6599,326.82966 -430.1469,498.17782 -64.307,30.73712 -137.0607,59.8488 -219.0299,86.3509 -96.9914,31.3555 -172.543,59.5548 -230.5879,87.2988 -230.9984,110.4116 -184.2096,213.3576 -103.8872,476.8247 14.1468,46.4109 -6.3158,107.7046 -55.8431,169.6745"
       style="fill:#1d1d1d;fill-opacity:1;fill-rule:nonzero;stroke:none;stroke-width:0;stroke-dasharray:none"
       clip-path="url(#clipPath2)" />
  </g>
</svg>
