<?xml version="1.0" encoding="UTF-8" standalone="no"?>
<!-- Created with Inkscape (http://www.inkscape.org/) -->

<svg
  version="1.1"
  id="svg1"
  width="2880"
  height="1280"
  viewBox="0 0 2880 1280"
  xmlns="http://www.w3.org/2000/svg"
  xmlns:svg="http://www.w3.org/2000/svg">
  <defs
    id="defs1" />
  <g
    id="g26">
    <path
      id="path2-9"
      d="M 2367.3765,2477.1646 5308.4514,1116.9337 3292.4654,-290.42976 351.39054,1069.8012 Z"
      style="fill:#858585;fill-opacity:1;fill-rule:evenodd;stroke:none;stroke-width:0.0687004" />
    <path
      id="path11-1"
      d="m 2171.1641,2390.8618 -218.7362,-158.1747 c 30.2046,-75.5699 24.935,-155.2111 -15.5986,-220.619 -230.1126,-371.3069 -339.0105,-519.0326 -109.2238,-629.1179 57.7333,-27.6586 136.8234,-52.9348 240.7745,-78.7951 87.8517,-21.8575 163.0327,-48.8431 227.0011,-79.4888 356.6059,-170.8413 365.1137,-455.59714 282.2939,-601.98262 -89.9713,-159.00197 -295.1357,-400.07014 -106.6895,-490.35022 92.361,-44.247924 279.2605,-52.278142 620.6353,3.33134 322.6047,52.55067 547.5291,29.40814 689.2769,-38.491252 49.0355,-23.491738 88.094,-52.318781 117.8327,-85.243832 l 83.2932,60.231853 c -27.7807,34.340921 -65.7751,63.937471 -114.8106,87.429201 -141.7554,67.8939 -375.5683,84.60886 -719.9452,16.31412 -364.4167,-72.27181 -559.8861,-70.43876 -652.247,-26.19084 -188.4463,90.28008 52.3949,357.1472 163.6134,531.51372 102.3857,160.53416 123.3899,466.63093 -233.2161,637.47233 -63.9683,30.6457 -140.1071,56.9386 -230.087,77.2572 -106.4625,24.0442 -186.8792,48.3611 -244.6125,76.0198 -229.786,110.0849 -99.8686,273.0113 180.8684,680.9262 49.4509,71.8563 63.3613,157.7459 39.5771,237.9585"
      style="fill:#505050;fill-opacity:1;fill-rule:nonzero;stroke:none;stroke-width:0.0717482" />
    <path
      id="path12-2"
      d="m 1956.367,2233.3586 -295.5948,-213.7535 c 38.8877,-69.2909 45.2882,-140.493 16.8077,-197.185 -161.6888,-321.8276 -242.1861,-449.0189 -12.4018,-559.103 57.7331,-27.6586 135.0285,-54.2327 235.5743,-82.5555 84.9786,-23.9352 158.8827,-51.8442 222.8509,-82.4898 356.606,-170.84136 404.9904,-426.76124 348.5966,-554.03731 -61.2468,-138.23042 -218.1991,-344.43479 -29.7528,-434.71487 92.3611,-44.247971 267.6828,-60.650311 577.914,-27.561806 293.1849,31.276416 506.0848,-0.561556 647.8324,-68.461035 49.0354,-23.4916927 89.527,-51.282476 121.9262,-82.283724 l 112.5498,81.388156 c -29.7388,32.925097 -68.7973,61.752139 -117.8328,85.243831 -141.7529,67.895668 -366.6722,91.041968 -689.2769,38.491258 -341.3749,-55.609441 -528.2742,-47.579269 -620.6353,-3.3313 -188.4463,90.28008 16.7183,331.34821 106.6895,490.35018 82.8198,146.38548 74.312,431.14132 -282.294,601.98272 -63.9682,30.6456 -139.1492,57.6312 -227.001,79.4887 -103.9511,25.8603 -183.0413,51.1366 -240.7744,78.7951 -229.7867,110.0853 -120.8889,257.811 109.2237,629.1179 40.5338,65.408 45.8032,145.0491 15.5987,220.619"
      style="fill:#3a3a3a;fill-opacity:1;fill-rule:nonzero;stroke:none;stroke-width:0.0717482" />
    <path
      id="path13-7"
      d="m 1665.0287,2022.6831 -183.2721,-132.5296 c 44.2794,-65.392 57.916,-131.3615 36.9057,-182.6515 -119.2725,-291.1551 -182.163,-405.6131 47.6224,-515.6977 57.7332,-27.6586 133.9146,-55.0382 232.3535,-84.8846 83.198,-25.2228 156.3004,-53.7114 220.2687,-84.3571 356.6059,-170.84132 429.7207,-408.87795 389.7217,-524.29843 -43.4545,-125.36428 -170.5117,-309.95065 17.9346,-400.230727 92.361,-44.24797 260.5034,-65.841889 551.4383,-46.707114 274.9315,18.076766 480.3884,-19.150618 622.1362,-87.050009 49.0294,-23.488808 90.4148,-50.633226 124.4527,-80.44946 l 69.7858,50.46421 c -32.3992,31.001249 -72.8906,58.7921205 -121.9261,82.283813 -141.7529,67.895667 -354.6475,99.737367 -647.8325,68.460947 -310.2312,-33.088505 -485.5529,-16.686166 -577.914,27.5618 -188.4462,90.28008 -31.494,296.48446 29.7528,434.71487 56.3938,127.27608 8.0094,383.19596 -348.5966,554.0373 -63.9682,30.6456 -137.8723,58.5546 -222.8509,82.4898 -100.5458,28.3228 -177.8411,54.8969 -235.5743,82.5555 -229.7843,110.0841 -149.287,237.2754 12.4018,559.103 28.4806,56.692 22.0802,127.8942 -16.8077,197.185"
      style="fill:#242424;fill-opacity:1;fill-rule:nonzero;stroke:none;stroke-width:0.0717482" />
    <path
      id="path14-0"
      d="m 1484.7903,1891.2588 -170.1194,-123.0185 c 49.2667,-61.7855 69.6215,-122.8969 55.5493,-169.1698 -79.8997,-262.6834 -126.4421,-365.3232 103.3402,-475.4064 57.7393,-27.6615 132.8932,-55.7768 229.3742,-87.0391 81.5377,-26.4233 153.9084,-55.44833 217.8767,-86.09402 356.5999,-170.83841 452.6645,-392.27929 427.8825,-496.69587 -26.9249,-113.41126 -126.2365,-277.93401 62.2098,-368.214086 92.361,-44.247924 253.842,-70.659002 526.8497,-64.487839 258.0048,5.836467 456.5376,-36.397877 598.2853,-104.297268 49.0295,-23.488857 91.2449,-50.032957 126.8081,-78.746267 l 64.7773,46.84249 c -34.0379,29.816228 -75.4232,56.9606 -124.4527,80.449454 -141.7529,67.895668 -347.2046,105.126729 -622.1362,87.050009 -290.9348,-19.134821 -459.0773,2.459144 -551.4382,46.707069 -188.4463,90.280078 -59.4197,275.202258 -15.9651,400.566488 39.9989,115.42054 -35.0854,353.12139 -391.6912,523.96274 -63.9684,30.6456 -137.0708,59.1343 -220.2687,84.3571 -98.439,29.8464 -174.6203,57.2259 -232.3536,84.8846 -229.7854,110.0846 -166.8949,224.5425 -47.6223,515.6976 21.0102,51.29 7.3738,117.2597 -36.9057,182.6516"
      style="fill:#202020;fill-opacity:1;fill-rule:nonzero;stroke:none;stroke-width:0;stroke-dasharray:none" />
    <path
      id="path15-9"
      d="M 1318.7687,1770.115 -9.1123401,1283.2114 -297.72988,24.995454 3255.1037,-457.85006 l 411.8407,297.81449 c -35.5631,28.71326 -77.7786,55.25741 -126.8081,78.746265 -141.7528,67.895622 -340.2805,110.133735 -598.2852,104.297222 -273.0078,-6.171117 -434.4887,20.239915 -526.8497,64.487885 -188.4463,90.280078 -89.1346,254.802918 -62.2097,368.214038 24.7819,104.41663 -71.2827,325.85746 -427.8826,496.69592 -63.9684,30.64569 -136.3391,59.67074 -217.8768,86.09404 -96.4809,31.2622 -171.6348,59.3776 -229.3741,87.0391 -229.7824,110.0832 -183.2399,212.723 -103.3403,475.4063 14.0723,46.2729 -6.2826,107.3843 -55.5492,169.1698"
      style="fill:#1d1d1d;fill-opacity:1;fill-rule:nonzero;stroke:none;stroke-width:0;stroke-dasharray:none" />
  </g>
</svg>
