<?xml version="1.0" encoding="UTF-8" standalone="no"?>
<!-- Created with Inkscape (http://www.inkscape.org/) -->

<svg
   version="1.1"
   id="svg1"
   width="3158.7634"
   height="1687.3986"
   viewBox="0 0 3158.7634 1687.3986"
   xmlns="http://www.w3.org/2000/svg"
   xmlns:svg="http://www.w3.org/2000/svg">
  <defs
     id="defs1" />
  <path
     id="path2"
     d="M -2.2949219e-6,1687.3985 H 3158.7635 V -1.0253906e-6 H -2.2949219e-6 Z"
     style="fill:#ebebeb;fill-opacity:1;fill-rule:evenodd;stroke:none;stroke-width:0.0604629" />
  <path
     id="path11"
     d="M -2.2949219e-6,1590.049 V 1411.628 C 84.808368,1370.1722 150.82779,1314.4232 182.25432,1256.8688 360.64865,930.1408 420.70238,794.5124 661.21128,794.5124 c 60.4272,0 132.2259,8.5585 220.1848,24.8018 74.3383,13.726 145.16412,19.8541 212.11732,19.8541 373.2458,0 626.5154,-190.4399 701.8203,-316.6823 81.7867,-137.1272 162.4995,-367.3795 359.739,-367.3795 96.6707,0 221.3282,55.3033 387.8329,203.9981 157.3507,140.5182 319.1046,197.9279 467.4591,197.9337 51.3236,0 101.011,-6.863 148.3987,-19.5359 v 67.9415 c -47.3877,14.27 -97.0751,22.001 -148.3987,22.001 -148.3545,-0.012 -310.1084,-64.672 -467.4591,-222.9495 -166.5047,-167.4899 -291.1622,-229.7836 -387.8329,-229.7836 -197.2395,0 -277.9523,259.3535 -359.739,413.8119 -75.3049,142.2021 -328.5745,356.7146 -701.8203,356.7146 -66.9532,0 -137.77902,-6.9093 -212.11732,-22.3713 -87.9589,-18.2918 -159.7576,-27.9324 -220.1848,-27.9324 -240.5082,0 -300.56263,152.7744 -478.95696,520.7962 C 150.82779,1480.559 84.808368,1543.3562 -2.294922e-6,1590.049"
     style="fill:#d4d4d4;fill-opacity:1;fill-rule:nonzero;stroke:none;stroke-width:0.0604627" />
  <path
     id="path12"
     d="m 1.8952577,1413.364 v -241.1139 c 84.8083703,-34.373 150.8277923,-80.6028 182.2543223,-128.3256 178.39433,-270.9154 238.4506,-383.3797 478.957,-383.3797 60.4271,0 132.2258,7.0945 220.1847,20.5601 74.3384,11.3824 145.16422,16.4689 212.11732,16.4689 373.2458,0 626.5155,-157.9129 701.8204,-262.5999 81.7867,-113.6969 162.4994,-304.6229 359.7389,-304.6229 96.6708,0 221.3282,45.8595 387.833,169.1507 157.3506,116.5208 319.1046,164.1221 467.4591,164.1278 51.3235,0 101.0109,-5.6941 148.3987,-16.1969 v 91.8058 c -47.3878,12.6729 -97.0752,19.5359 -148.3987,19.5359 -148.3545,-0.01 -310.1085,-57.4155 -467.4591,-197.9337 -166.5048,-148.6948 -291.1622,-203.9981 -387.833,-203.9981 -197.2395,0 -277.9522,230.2523 -359.7389,367.3795 -75.3049,126.2424 -328.5746,316.6823 -701.8204,316.6823 -66.9531,0 -137.77892,-6.1281 -212.11732,-19.8541 -87.9589,-16.2433 -159.7576,-24.8018 -220.1847,-24.8018 -240.5089,0 -300.56267,135.6284 -478.957,462.3564 -31.42653,57.5545 -97.445952,113.3034 -182.2543223,154.7592"
     style="fill:#bcbcbc;fill-opacity:1;fill-rule:nonzero;stroke:none;stroke-width:0.0604627" />
  <path
     id="path13"
     d="M 1.8952577,1175.7221 V 1026.2288 C 86.703628,996.2537 152.72305,955.9263 184.14958,914.2969 c 178.39433,-236.3168 238.4494,-334.4185 478.957,-334.4185 60.4271,0 132.2258,6.1859 220.1847,17.9329 74.3384,9.93 145.16422,14.3626 212.11732,14.3626 373.2458,0 626.5155,-137.7406 701.8204,-229.0545 81.7867,-99.1839 162.4994,-265.7248 359.7389,-265.7248 96.6708,0 221.3282,40.0034 387.833,147.5548 157.3506,101.6316 319.1109,143.1569 467.4654,143.1627 51.3172,0 101.0046,-4.965 148.3924,-14.1311 v 56.9236 c -47.3878,10.5028 -97.0752,16.197 -148.3987,16.197 -148.3545,-0.01 -310.1085,-47.6071 -467.4591,-164.1279 -166.5048,-123.2912 -291.1622,-169.1507 -387.833,-169.1507 -197.2395,0 -277.9522,190.926 -359.7389,304.6229 -75.3049,104.687 -328.5746,262.5999 -701.8204,262.5999 -66.9531,0 -137.77892,-5.0865 -212.11732,-16.4689 -87.9589,-13.4656 -159.7576,-20.5601 -220.1847,-20.5601 -240.5064,0 -300.56267,112.4643 -478.957,383.3797 -31.42653,47.7228 -97.445952,93.9527 -182.2543223,128.3256"
     style="fill:#a5a5a5;fill-opacity:1;fill-rule:nonzero;stroke:none;stroke-width:0.0604627" />
  <path
     id="path14"
     d="M 2.8428877,1027.9648 V 889.2 C 87.651258,863.293 153.67068,828.4456 185.09721,792.4755 363.49153,588.2748 423.54978,503.5056 664.05418,503.5056 c 60.4335,0 132.2258,5.3527 220.1848,15.5026 74.3383,8.5758 145.17042,12.4066 212.12362,12.4066 373.2394,0 626.5091,-119.0206 701.814,-197.9221 81.7867,-85.7009 162.4995,-229.61 359.739,-229.61 96.6707,0 221.3282,34.5697 387.8329,127.4981 157.3507,87.8246 319.1109,123.702 467.4654,123.7078 51.3173,0 101.0046,-4.2879 148.3924,-12.2099 v 52.8383 c -47.3878,9.1661 -97.0751,14.1311 -148.3924,14.1311 -148.3545,-0.01 -310.1147,-41.5311 -467.4654,-143.1627 -166.5047,-107.5514 -291.1622,-147.5548 -387.8329,-147.5548 -197.2395,0 -277.0047,167.4089 -358.7913,266.5928 -75.305,91.3139 -329.5223,228.1865 -702.768,228.1865 -66.9532,0 -137.77902,-4.4326 -212.11732,-14.3626 -87.959,-11.747 -159.7576,-17.9329 -220.1848,-17.9329 -240.5076,0 -300.56265,98.1017 -478.95697,334.4185 -31.42653,41.6294 -97.445952,81.9569 -182.2543223,111.9319"
     style="fill:#8d8d8d;fill-opacity:1;fill-rule:nonzero;stroke:none;stroke-width:0;stroke-dasharray:none" />
  <path
     id="path15"
     d="m 3.7905177,891.804 -7.19128,-1116.38603 3158.4451623,-4.70933 7.5095,574.77406 c -47.3877,7.922 -97.0751,12.2099 -148.3924,12.2099 -148.3544,-0.01 -310.1147,-35.8832 -467.4653,-123.7078 -166.5048,-92.9284 -291.1622,-127.4981 -387.833,-127.4981 -197.2395,0 -277.9523,143.9092 -359.7389,229.61 -75.305,78.9015 -328.5746,197.9221 -701.8141,197.9221 -66.9532,0 -137.78532,-3.8308 -212.12362,-12.4066 -87.9589,-10.1499 -159.7513,-15.5026 -220.1848,-15.5026 -240.5044,0 -300.56262,84.7692 -478.95694,288.9699 C 154.61831,831.0496 88.598888,865.897 3.7905177,891.804"
     style="fill:#767676;fill-opacity:1;fill-rule:nonzero;stroke:none;stroke-width:0;stroke-dasharray:none" />
</svg>
